<svg width="35" height="32" viewBox="0 0 35 32" fill="none" xmlns="http://www.w3.org/2000/svg">
<mask id="path-1-inside-1_900_15" fill="white">
<path d="M15.6139 0C15.1806 0 14.7473 0.1 14.3306 0.25L2.06392 5.33333C1.24852 5.66724 0.599103 6.31129 0.258438 7.12389C-0.0822266 7.93648 -0.0862507 8.85111 0.247251 9.66667L8.51392 29.5833C8.7581 30.1874 9.17397 30.7067 9.71012 31.077C10.2463 31.4472 10.8792 31.6523 11.5306 31.6667C11.9639 31.6667 12.4139 31.6167 12.8473 31.4167L25.1306 26.3333C25.7234 26.0817 26.2317 25.6654 26.5951 25.1336C26.9584 24.6019 27.1616 23.9771 27.1806 23.3333C27.1973 22.9167 27.1139 22.4333 26.9639 22L18.6306 2.08333C18.395 1.47337 17.9813 0.948435 17.4433 0.576861C16.9052 0.205287 16.2678 0.00427956 15.6139 0ZM21.4139 0L27.1639 13.9167V3.33333C27.1639 2.44928 26.8127 1.60143 26.1876 0.976311C25.5625 0.351189 24.7146 0 23.8306 0M30.5139 2.56667V17.6167L34.5639 7.85C34.73 7.44628 34.8147 7.01375 34.8132 6.57722C34.8117 6.14068 34.7241 5.70874 34.5553 5.30615C34.3865 4.90356 34.1399 4.53826 33.8297 4.23118C33.5194 3.9241 33.1516 3.68128 32.7472 3.51667M15.6139 3.28333L23.9139 23.3167L11.5973 28.4167L3.29725 8.4"/>
</mask>
<path d="M15.6139 0C15.1806 0 14.7473 0.1 14.3306 0.25L2.06392 5.33333C1.24852 5.66724 0.599103 6.31129 0.258438 7.12389C-0.0822266 7.93648 -0.0862507 8.85111 0.247251 9.66667L8.51392 29.5833C8.7581 30.1874 9.17397 30.7067 9.71012 31.077C10.2463 31.4472 10.8792 31.6523 11.5306 31.6667C11.9639 31.6667 12.4139 31.6167 12.8473 31.4167L25.1306 26.3333C25.7234 26.0817 26.2317 25.6654 26.5951 25.1336C26.9584 24.6019 27.1616 23.9771 27.1806 23.3333C27.1973 22.9167 27.1139 22.4333 26.9639 22L18.6306 2.08333C18.395 1.47337 17.9813 0.948435 17.4433 0.576861C16.9052 0.205287 16.2678 0.00427956 15.6139 0ZM21.4139 0L27.1639 13.9167V3.33333C27.1639 2.44928 26.8127 1.60143 26.1876 0.976311C25.5625 0.351189 24.7146 0 23.8306 0M30.5139 2.56667V17.6167L34.5639 7.85C34.73 7.44628 34.8147 7.01375 34.8132 6.57722C34.8117 6.14068 34.7241 5.70874 34.5553 5.30615C34.3865 4.90356 34.1399 4.53826 33.8297 4.23118C33.5194 3.9241 33.1516 3.68128 32.7472 3.51667M15.6139 3.28333L23.9139 23.3167L11.5973 28.4167L3.29725 8.4" fill="url(#paint0_linear_900_15)"/>
<path d="M15.6139 0L15.6205 -1H15.6139V0ZM14.3306 0.25L13.9919 -0.690887L13.9696 -0.682874L13.9478 -0.673818L14.3306 0.25ZM2.06392 5.33333L2.44288 6.25875L2.44675 6.25715L2.06392 5.33333ZM0.247251 9.66667L-0.678363 10.0452L-0.676351 10.05L0.247251 9.66667ZM8.51392 29.5833L9.44108 29.2086L9.43752 29.2L8.51392 29.5833ZM11.5306 31.6667L11.5085 32.6664L11.5195 32.6667H11.5306V31.6667ZM12.8473 31.4167L12.4649 30.4927L12.4464 30.5003L12.4282 30.5087L12.8473 31.4167ZM25.1306 26.3333L25.513 27.2574L25.5212 27.2539L25.1306 26.3333ZM27.1806 23.3333L26.1813 23.2934L26.181 23.3039L27.1806 23.3333ZM26.9639 22L27.9089 21.6729L27.8986 21.6431L27.8864 21.614L26.9639 22ZM18.6306 2.08333L17.6977 2.4436L17.7027 2.45653L17.7081 2.46932L18.6306 2.08333ZM27.1639 13.9167L26.2397 14.2985L28.1639 13.9167H27.1639ZM30.5139 17.6167H29.5139L31.4376 17.9997L30.5139 17.6167ZM34.5639 7.85L35.4877 8.23305L35.4888 8.23036L34.5639 7.85ZM23.9139 23.3167L24.2965 24.2406L25.2206 23.8579L24.8378 22.9339L23.9139 23.3167ZM11.5973 28.4167L10.6735 28.7997L11.0564 29.723L11.9798 29.3406L11.5973 28.4167ZM15.6139 -1C15.0299 -1 14.4781 -0.865949 13.9919 -0.690887L14.6693 1.19089C15.0164 1.06595 15.3313 1 15.6139 1V-1ZM13.9478 -0.673818L1.68109 4.40952L2.44675 6.25715L14.7134 1.17382L13.9478 -0.673818ZM1.68496 4.40792C0.624206 4.8423 -0.220625 5.68015 -0.663797 6.73726L1.18067 7.51052C1.41883 6.94244 1.87284 6.49218 2.44288 6.25875L1.68496 4.40792ZM-0.663797 6.73726C-1.10697 7.79437 -1.1122 8.9842 -0.678351 10.0452L1.17285 9.28817C0.939702 8.71801 0.942516 8.0786 1.18067 7.51052L-0.663797 6.73726ZM-0.676351 10.05L7.59032 29.9667L9.43752 29.2L1.17085 9.28331L-0.676351 10.05ZM7.58679 29.9581C7.90423 30.7434 8.44486 31.4185 9.14185 31.8998L10.2784 30.2541C9.90308 29.9949 9.61197 29.6314 9.44104 29.2086L7.58679 29.9581ZM9.14185 31.8998C9.83884 32.3812 10.6616 32.6477 11.5085 32.6664L11.5527 30.6669C11.0967 30.6568 10.6537 30.5133 10.2784 30.2541L9.14185 31.8998ZM11.5306 32.6667C12.036 32.6667 12.6486 32.6097 13.2663 32.3246L12.4282 30.5087C12.1792 30.6236 11.8919 30.6667 11.5306 30.6667V32.6667ZM13.2296 32.3407L25.513 27.2573L24.7482 25.4093L12.4649 30.4927L13.2296 32.3407ZM25.5212 27.2539C26.2902 26.9275 26.9494 26.3875 27.4207 25.6978L25.7694 24.5694C25.514 24.9432 25.1567 25.2359 24.7399 25.4128L25.5212 27.2539ZM27.4207 25.6978C27.892 25.0081 28.1556 24.1977 28.1802 23.3628L26.181 23.3039C26.1677 23.7564 26.0248 24.1956 25.7694 24.5694L27.4207 25.6978ZM28.1798 23.3733C28.2023 22.8099 28.0918 22.2013 27.9089 21.6729L26.0189 22.3271C26.136 22.6654 26.1922 23.0234 26.1814 23.2934L28.1798 23.3733ZM27.8864 21.614L19.5531 1.69735L17.7081 2.46932L26.0414 22.386L27.8864 21.614ZM19.5634 1.72307C19.2555 0.925803 18.7148 0.239685 18.0115 -0.245985L16.875 1.39971C17.2478 1.65718 17.5345 2.02093 17.6977 2.4436L19.5634 1.72307ZM18.0115 -0.245985C17.3083 -0.731656 16.4751 -0.994385 15.6205 -0.999979L15.6074 0.999979C16.0605 1.00294 16.5022 1.14223 16.875 1.39971L18.0115 -0.245985ZM20.4897 0.381863L26.2397 14.2985L28.0881 13.5348L22.3381 -0.381863L20.4897 0.381863ZM28.1639 13.9167V3.33333H26.1639V13.9167H28.1639ZM28.1639 3.33333C28.1639 2.18406 27.7074 1.08186 26.8947 0.269204L25.4805 1.68342C25.9181 2.121 26.1639 2.71449 26.1639 3.33333H28.1639ZM26.8947 0.269204C26.0821 -0.543454 24.9799 -1 23.8306 -1V1C24.4494 1 25.0429 1.24583 25.4805 1.68342L26.8947 0.269204ZM29.5139 2.56667V17.6167H31.5139V2.56667H29.5139ZM31.4376 17.9997L35.4876 8.23305L33.6402 7.46695L29.5902 17.2336L31.4376 17.9997ZM35.4888 8.23036C35.7049 7.70491 35.8151 7.14197 35.8132 6.57382L33.8132 6.58061C33.8142 6.88552 33.7551 7.18764 33.6391 7.46964L35.4888 8.23036ZM35.8132 6.57382C35.8113 6.00567 35.6972 5.44349 35.4775 4.91952L33.633 5.69278C33.7509 5.97399 33.8122 6.2757 33.8132 6.58061L35.8132 6.57382ZM35.4775 4.91952C35.2579 4.39555 34.9369 3.9201 34.5331 3.52043L33.1262 4.94192C33.3429 5.15641 33.5152 5.41158 33.633 5.69278L35.4775 4.91952ZM34.5331 3.52043C34.1293 3.12077 33.6506 2.80474 33.1243 2.59049L32.3702 4.44284C32.6526 4.55782 32.9095 4.72743 33.1262 4.94192L34.5331 3.52043ZM14.6901 3.66609L22.9901 23.6994L24.8378 22.9339L16.5378 2.90057L14.6901 3.66609ZM23.5313 22.3927L11.2147 27.4927L11.9798 29.3406L24.2965 24.2406L23.5313 22.3927ZM12.521 28.0336L4.22099 8.01697L2.37352 8.78303L10.6735 28.7997L12.521 28.0336Z" fill="white" mask="url(#path-1-inside-1_900_15)"/>
<defs>
<linearGradient id="paint0_linear_900_15" x1="17.4066" y1="0" x2="17.4066" y2="31.6667" gradientUnits="userSpaceOnUse">
<stop stop-color="#AE70E9"/>
<stop offset="1" stop-color="#0160DD"/>
<stop offset="1" stop-color="#999999"/>
</linearGradient>
</defs>
</svg>
