<svg width="33" height="30" viewBox="0 0 33 30" fill="none" xmlns="http://www.w3.org/2000/svg">
<path d="M4.3125 23C5.19222 23 6.02577 23.3112 6.63197 23.85C7.23625 24.3872 7.5625 25.1022 7.5625 25.8333C7.5625 26.5645 7.23625 27.2795 6.63197 27.8167C6.02577 28.3555 5.19222 28.6667 4.3125 28.6667C3.43278 28.6667 2.59923 28.3555 1.99303 27.8167C1.38875 27.2795 1.0625 26.5645 1.0625 25.8333C1.0625 25.1022 1.38875 24.3872 1.99303 23.85C2.59923 23.3112 3.43278 23 4.3125 23ZM16.5 23C17.3797 23 18.2133 23.3112 18.8195 23.85C19.4237 24.3872 19.75 25.1022 19.75 25.8333C19.75 26.5645 19.4237 27.2795 18.8195 27.8167C18.2133 28.3555 17.3797 28.6667 16.5 28.6667C15.6203 28.6667 14.7867 28.3555 14.1805 27.8167C13.5763 27.2795 13.25 26.5645 13.25 25.8333C13.25 25.1022 13.5763 24.3872 14.1805 23.85C14.7867 23.3112 15.6203 23 16.5 23ZM28.6875 23C29.5672 23 30.4008 23.3112 31.007 23.85C31.6112 24.3872 31.9375 25.1022 31.9375 25.8333C31.9375 26.5645 31.6112 27.2795 31.007 27.8167C30.4008 28.3555 29.5672 28.6667 28.6875 28.6667C27.8078 28.6667 26.9742 28.3555 26.368 27.8167C25.7638 27.2795 25.4375 26.5645 25.4375 25.8333C25.4375 25.1022 25.7638 24.3872 26.368 23.85C26.9742 23.3112 27.8078 23 28.6875 23ZM4.3125 12.1667C5.19222 12.1667 6.02577 12.4778 6.63197 13.0167C7.23625 13.5538 7.5625 14.2688 7.5625 15C7.5625 15.7312 7.23625 16.4462 6.63197 16.9833C6.02577 17.5222 5.19222 17.8333 4.3125 17.8333C3.43278 17.8333 2.59923 17.5222 1.99303 16.9833C1.38875 16.4462 1.0625 15.7312 1.0625 15C1.0625 14.2688 1.38875 13.5538 1.99303 13.0167C2.59923 12.4778 3.43278 12.1667 4.3125 12.1667ZM16.5 12.1667C17.3797 12.1667 18.2133 12.4778 18.8195 13.0167C19.4237 13.5538 19.75 14.2688 19.75 15C19.75 15.7312 19.4237 16.4462 18.8195 16.9833C18.2133 17.5222 17.3797 17.8333 16.5 17.8333C15.6203 17.8333 14.7867 17.5222 14.1805 16.9833C13.5763 16.4462 13.25 15.7312 13.25 15C13.25 14.2688 13.5763 13.5538 14.1805 13.0167C14.7867 12.4778 15.6203 12.1667 16.5 12.1667ZM28.6875 12.1667C29.5672 12.1667 30.4008 12.4778 31.007 13.0167C31.6112 13.5538 31.9375 14.2688 31.9375 15C31.9375 15.7312 31.6112 16.4462 31.007 16.9833C30.4008 17.5222 29.5672 17.8333 28.6875 17.8333C27.8078 17.8333 26.9742 17.5222 26.368 16.9833C25.7638 16.4462 25.4375 15.7312 25.4375 15C25.4375 14.2688 25.7638 13.5538 26.368 13.0167C26.9742 12.4778 27.8078 12.1667 28.6875 12.1667ZM4.3125 1.33334C5.19222 1.33334 6.02577 1.64451 6.63197 2.18335C7.23625 2.72049 7.5625 3.4355 7.5625 4.16667C7.5625 4.89784 7.23625 5.61285 6.63197 6.14999C6.02577 6.68883 5.19222 7 4.3125 7C3.43278 7 2.59923 6.68883 1.99303 6.14999C1.38875 5.61285 1.0625 4.89784 1.0625 4.16667C1.0625 3.4355 1.38875 2.72049 1.99303 2.18335C2.59923 1.64451 3.43278 1.33334 4.3125 1.33334ZM16.5 1.33334C17.3797 1.33334 18.2133 1.64451 18.8195 2.18335C19.4237 2.72049 19.75 3.4355 19.75 4.16667C19.75 4.89784 19.4237 5.61285 18.8195 6.14999C18.2133 6.68883 17.3797 7 16.5 7C15.6203 7 14.7867 6.68883 14.1805 6.14999C13.5763 5.61285 13.25 4.89784 13.25 4.16667C13.25 3.4355 13.5763 2.72049 14.1805 2.18335C14.7867 1.64451 15.6203 1.33334 16.5 1.33334ZM28.6875 1.33334C29.5672 1.33334 30.4008 1.64451 31.007 2.18335C31.6112 2.72049 31.9375 3.4355 31.9375 4.16667C31.9375 4.89784 31.6112 5.61285 31.007 6.14999C30.4008 6.68883 29.5672 7 28.6875 7C27.8078 7 26.9742 6.68883 26.368 6.14999C25.7638 5.61285 25.4375 4.89784 25.4375 4.16667C25.4375 3.4355 25.7638 2.72049 26.368 2.18335C26.9742 1.64451 27.8078 1.33334 28.6875 1.33334Z" fill="url(#paint0_linear_900_12)" stroke="white"/>
<defs>
<linearGradient id="paint0_linear_900_12" x1="16.5" y1="0.833336" x2="16.5" y2="29.1667" gradientUnits="userSpaceOnUse">
<stop stop-color="#AE70E9"/>
<stop offset="1" stop-color="#0160DD"/>
</linearGradient>
</defs>
</svg>
