<svg width="168" height="26" viewBox="0 0 168 26" fill="none" xmlns="http://www.w3.org/2000/svg">
<g filter="url(#filter0_d_900_95)">
<mask id="path-1-outside-1_900_95" maskUnits="userSpaceOnUse" x="1" y="1" width="160" height="18" fill="black">
<rect fill="white" x="1" y="1" width="160" height="18"/>
<path d="M2.76136 17V2.45455H4.52273V15.4375H11.2841V17H2.76136ZM15.7727 2.45455V17H14.0114V2.45455H15.7727ZM19.3043 17V2.45455H24.3896C25.4028 2.45455 26.2385 2.62973 26.8967 2.98011C27.5548 3.32576 28.0449 3.79214 28.3668 4.37926C28.6888 4.96165 28.8498 5.60795 28.8498 6.31818C28.8498 6.94318 28.7385 7.45928 28.516 7.86648C28.2982 8.27367 28.0094 8.59564 27.6495 8.83239C27.2944 9.06913 26.9085 9.24432 26.4918 9.35795V9.5C26.9369 9.52841 27.3844 9.68466 27.8342 9.96875C28.284 10.2528 28.6604 10.66 28.9634 11.1903C29.2665 11.7206 29.418 12.3693 29.418 13.1364C29.418 13.8655 29.2522 14.5213 28.9208 15.1037C28.5894 15.6861 28.0662 16.1477 27.3512 16.4886C26.6362 16.8295 25.7058 17 24.56 17H19.3043ZM21.0657 15.4375H24.56C25.7106 15.4375 26.5273 15.215 27.0103 14.7699C27.498 14.3201 27.7418 13.7756 27.7418 13.1364C27.7418 12.6439 27.6164 12.1894 27.3654 11.7727C27.1145 11.3513 26.757 11.0152 26.293 10.7642C25.829 10.5085 25.2797 10.3807 24.6452 10.3807H21.0657V15.4375ZM21.0657 8.84659H24.3327C24.863 8.84659 25.3413 8.74242 25.7674 8.53409C26.1983 8.32576 26.5392 8.0322 26.7901 7.65341C27.0458 7.27462 27.1737 6.82955 27.1737 6.31818C27.1737 5.67898 26.9511 5.13684 26.506 4.69176C26.061 4.24195 25.3555 4.01705 24.3896 4.01705H21.0657V8.84659ZM32.3121 17V2.45455H37.2269C38.3633 2.45455 39.296 2.64867 40.0252 3.03693C40.7544 3.42045 41.2942 3.94839 41.6445 4.62074C41.9949 5.29309 42.1701 6.05777 42.1701 6.91477C42.1701 7.77178 41.9949 8.53172 41.6445 9.1946C41.2942 9.85748 40.7567 10.3783 40.0323 10.7571C39.3079 11.1312 38.3822 11.3182 37.2553 11.3182H33.2781V9.72727H37.1985C37.975 9.72727 38.6 9.61364 39.0735 9.38636C39.5517 9.15909 39.8974 8.83712 40.1104 8.42045C40.3282 7.99905 40.4371 7.49716 40.4371 6.91477C40.4371 6.33239 40.3282 5.82339 40.1104 5.38778C39.8926 4.95218 39.5446 4.616 39.0664 4.37926C38.5882 4.13778 37.9561 4.01705 37.1701 4.01705H34.0735V17H32.3121ZM39.1587 10.4659L42.7383 17H40.6928L37.1701 10.4659H39.1587ZM45.7017 17H43.8551L49.196 2.45455H51.0142L56.3551 17H54.5085L50.1619 4.75568H50.0483L45.7017 17ZM46.3835 11.3182H53.8267V12.8807H46.3835V11.3182ZM58.6207 17V2.45455H63.5355C64.6719 2.45455 65.6046 2.64867 66.3338 3.03693C67.063 3.42045 67.6027 3.94839 67.9531 4.62074C68.3035 5.29309 68.4787 6.05777 68.4787 6.91477C68.4787 7.77178 68.3035 8.53172 67.9531 9.1946C67.6027 9.85748 67.0653 10.3783 66.3409 10.7571C65.6165 11.1312 64.6908 11.3182 63.5639 11.3182H59.5866V9.72727H63.5071C64.2836 9.72727 64.9086 9.61364 65.3821 9.38636C65.8603 9.15909 66.206 8.83712 66.419 8.42045C66.6368 7.99905 66.7457 7.49716 66.7457 6.91477C66.7457 6.33239 66.6368 5.82339 66.419 5.38778C66.2012 4.95218 65.8532 4.616 65.375 4.37926C64.8968 4.13778 64.2647 4.01705 63.4787 4.01705H60.3821V17H58.6207ZM65.4673 10.4659L69.0469 17H67.0014L63.4787 10.4659H65.4673ZM69.6754 2.45455H71.6925L75.7266 9.24432H75.897L79.9311 2.45455H81.9482L76.6925 11.0057V17H74.9311V11.0057L69.6754 2.45455ZM102.124 9.72727C102.124 11.2614 101.847 12.5871 101.293 13.7045C100.739 14.822 99.979 15.6837 99.0131 16.2898C98.0472 16.8958 96.944 17.1989 95.7035 17.1989C94.463 17.1989 93.3597 16.8958 92.3938 16.2898C91.4279 15.6837 90.668 14.822 90.114 13.7045C89.56 12.5871 89.283 11.2614 89.283 9.72727C89.283 8.19318 89.56 6.86742 90.114 5.75C90.668 4.63258 91.4279 3.77083 92.3938 3.16477C93.3597 2.55871 94.463 2.25568 95.7035 2.25568C96.944 2.25568 98.0472 2.55871 99.0131 3.16477C99.979 3.77083 100.739 4.63258 101.293 5.75C101.847 6.86742 102.124 8.19318 102.124 9.72727ZM100.419 9.72727C100.419 8.4678 100.209 7.40483 99.7873 6.53835C99.3706 5.67188 98.8048 5.0161 98.0898 4.57102C97.3796 4.12595 96.5842 3.90341 95.7035 3.90341C94.8228 3.90341 94.025 4.12595 93.31 4.57102C92.5998 5.0161 92.034 5.67188 91.6126 6.53835C91.1959 7.40483 90.9876 8.4678 90.9876 9.72727C90.9876 10.9867 91.1959 12.0497 91.6126 12.9162C92.034 13.7827 92.5998 14.4384 93.31 14.8835C94.025 15.3286 94.8228 15.5511 95.7035 15.5511C96.5842 15.5511 97.3796 15.3286 98.0898 14.8835C98.8048 14.4384 99.3706 13.7827 99.7873 12.9162C100.209 12.0497 100.419 10.9867 100.419 9.72727ZM105.086 17V2.45455H113.807V4.01705H106.847V8.93182H113.154V10.4943H106.847V17H105.086ZM122.449 17V2.45455H124.21V15.4375H130.972V17H122.449ZM135.46 2.45455V17H133.699V2.45455H135.46ZM138.992 17V2.45455H147.713V4.01705H140.753V8.93182H147.06V10.4943H140.753V17H138.992ZM150.73 17V2.45455H159.509V4.01705H152.491V8.93182H159.054V10.4943H152.491V15.4375H159.622V17H150.73Z"/>
</mask>
<path d="M2.76136 17V2.45455H4.52273V15.4375H11.2841V17H2.76136ZM15.7727 2.45455V17H14.0114V2.45455H15.7727ZM19.3043 17V2.45455H24.3896C25.4028 2.45455 26.2385 2.62973 26.8967 2.98011C27.5548 3.32576 28.0449 3.79214 28.3668 4.37926C28.6888 4.96165 28.8498 5.60795 28.8498 6.31818C28.8498 6.94318 28.7385 7.45928 28.516 7.86648C28.2982 8.27367 28.0094 8.59564 27.6495 8.83239C27.2944 9.06913 26.9085 9.24432 26.4918 9.35795V9.5C26.9369 9.52841 27.3844 9.68466 27.8342 9.96875C28.284 10.2528 28.6604 10.66 28.9634 11.1903C29.2665 11.7206 29.418 12.3693 29.418 13.1364C29.418 13.8655 29.2522 14.5213 28.9208 15.1037C28.5894 15.6861 28.0662 16.1477 27.3512 16.4886C26.6362 16.8295 25.7058 17 24.56 17H19.3043ZM21.0657 15.4375H24.56C25.7106 15.4375 26.5273 15.215 27.0103 14.7699C27.498 14.3201 27.7418 13.7756 27.7418 13.1364C27.7418 12.6439 27.6164 12.1894 27.3654 11.7727C27.1145 11.3513 26.757 11.0152 26.293 10.7642C25.829 10.5085 25.2797 10.3807 24.6452 10.3807H21.0657V15.4375ZM21.0657 8.84659H24.3327C24.863 8.84659 25.3413 8.74242 25.7674 8.53409C26.1983 8.32576 26.5392 8.0322 26.7901 7.65341C27.0458 7.27462 27.1737 6.82955 27.1737 6.31818C27.1737 5.67898 26.9511 5.13684 26.506 4.69176C26.061 4.24195 25.3555 4.01705 24.3896 4.01705H21.0657V8.84659ZM32.3121 17V2.45455H37.2269C38.3633 2.45455 39.296 2.64867 40.0252 3.03693C40.7544 3.42045 41.2942 3.94839 41.6445 4.62074C41.9949 5.29309 42.1701 6.05777 42.1701 6.91477C42.1701 7.77178 41.9949 8.53172 41.6445 9.1946C41.2942 9.85748 40.7567 10.3783 40.0323 10.7571C39.3079 11.1312 38.3822 11.3182 37.2553 11.3182H33.2781V9.72727H37.1985C37.975 9.72727 38.6 9.61364 39.0735 9.38636C39.5517 9.15909 39.8974 8.83712 40.1104 8.42045C40.3282 7.99905 40.4371 7.49716 40.4371 6.91477C40.4371 6.33239 40.3282 5.82339 40.1104 5.38778C39.8926 4.95218 39.5446 4.616 39.0664 4.37926C38.5882 4.13778 37.9561 4.01705 37.1701 4.01705H34.0735V17H32.3121ZM39.1587 10.4659L42.7383 17H40.6928L37.1701 10.4659H39.1587ZM45.7017 17H43.8551L49.196 2.45455H51.0142L56.3551 17H54.5085L50.1619 4.75568H50.0483L45.7017 17ZM46.3835 11.3182H53.8267V12.8807H46.3835V11.3182ZM58.6207 17V2.45455H63.5355C64.6719 2.45455 65.6046 2.64867 66.3338 3.03693C67.063 3.42045 67.6027 3.94839 67.9531 4.62074C68.3035 5.29309 68.4787 6.05777 68.4787 6.91477C68.4787 7.77178 68.3035 8.53172 67.9531 9.1946C67.6027 9.85748 67.0653 10.3783 66.3409 10.7571C65.6165 11.1312 64.6908 11.3182 63.5639 11.3182H59.5866V9.72727H63.5071C64.2836 9.72727 64.9086 9.61364 65.3821 9.38636C65.8603 9.15909 66.206 8.83712 66.419 8.42045C66.6368 7.99905 66.7457 7.49716 66.7457 6.91477C66.7457 6.33239 66.6368 5.82339 66.419 5.38778C66.2012 4.95218 65.8532 4.616 65.375 4.37926C64.8968 4.13778 64.2647 4.01705 63.4787 4.01705H60.3821V17H58.6207ZM65.4673 10.4659L69.0469 17H67.0014L63.4787 10.4659H65.4673ZM69.6754 2.45455H71.6925L75.7266 9.24432H75.897L79.9311 2.45455H81.9482L76.6925 11.0057V17H74.9311V11.0057L69.6754 2.45455ZM102.124 9.72727C102.124 11.2614 101.847 12.5871 101.293 13.7045C100.739 14.822 99.979 15.6837 99.0131 16.2898C98.0472 16.8958 96.944 17.1989 95.7035 17.1989C94.463 17.1989 93.3597 16.8958 92.3938 16.2898C91.4279 15.6837 90.668 14.822 90.114 13.7045C89.56 12.5871 89.283 11.2614 89.283 9.72727C89.283 8.19318 89.56 6.86742 90.114 5.75C90.668 4.63258 91.4279 3.77083 92.3938 3.16477C93.3597 2.55871 94.463 2.25568 95.7035 2.25568C96.944 2.25568 98.0472 2.55871 99.0131 3.16477C99.979 3.77083 100.739 4.63258 101.293 5.75C101.847 6.86742 102.124 8.19318 102.124 9.72727ZM100.419 9.72727C100.419 8.4678 100.209 7.40483 99.7873 6.53835C99.3706 5.67188 98.8048 5.0161 98.0898 4.57102C97.3796 4.12595 96.5842 3.90341 95.7035 3.90341C94.8228 3.90341 94.025 4.12595 93.31 4.57102C92.5998 5.0161 92.034 5.67188 91.6126 6.53835C91.1959 7.40483 90.9876 8.4678 90.9876 9.72727C90.9876 10.9867 91.1959 12.0497 91.6126 12.9162C92.034 13.7827 92.5998 14.4384 93.31 14.8835C94.025 15.3286 94.8228 15.5511 95.7035 15.5511C96.5842 15.5511 97.3796 15.3286 98.0898 14.8835C98.8048 14.4384 99.3706 13.7827 99.7873 12.9162C100.209 12.0497 100.419 10.9867 100.419 9.72727ZM105.086 17V2.45455H113.807V4.01705H106.847V8.93182H113.154V10.4943H106.847V17H105.086ZM122.449 17V2.45455H124.21V15.4375H130.972V17H122.449ZM135.46 2.45455V17H133.699V2.45455H135.46ZM138.992 17V2.45455H147.713V4.01705H140.753V8.93182H147.06V10.4943H140.753V17H138.992ZM150.73 17V2.45455H159.509V4.01705H152.491V8.93182H159.054V10.4943H152.491V15.4375H159.622V17H150.73Z" fill="url(#paint0_linear_900_95)"/>
<path d="M2.76136 17H1.76136V18H2.76136V17ZM2.76136 2.45455V1.45455H1.76136V2.45455H2.76136ZM4.52273 2.45455H5.52273V1.45455H4.52273V2.45455ZM4.52273 15.4375H3.52273V16.4375H4.52273V15.4375ZM11.2841 15.4375H12.2841V14.4375H11.2841V15.4375ZM11.2841 17V18H12.2841V17H11.2841ZM3.76136 17V2.45455H1.76136V17H3.76136ZM2.76136 3.45455H4.52273V1.45455H2.76136V3.45455ZM3.52273 2.45455V15.4375H5.52273V2.45455H3.52273ZM4.52273 16.4375H11.2841V14.4375H4.52273V16.4375ZM10.2841 15.4375V17H12.2841V15.4375H10.2841ZM11.2841 16H2.76136V18H11.2841V16ZM15.7727 2.45455H16.7727V1.45455H15.7727V2.45455ZM15.7727 17V18H16.7727V17H15.7727ZM14.0114 17H13.0114V18H14.0114V17ZM14.0114 2.45455V1.45455H13.0114V2.45455H14.0114ZM14.7727 2.45455V17H16.7727V2.45455H14.7727ZM15.7727 16H14.0114V18H15.7727V16ZM15.0114 17V2.45455H13.0114V17H15.0114ZM14.0114 3.45455H15.7727V1.45455H14.0114V3.45455ZM19.3043 17H18.3043V18H19.3043V17ZM19.3043 2.45455V1.45455H18.3043V2.45455H19.3043ZM26.8967 2.98011L26.4267 3.86283L26.4317 3.86545L26.8967 2.98011ZM28.3668 4.37926L27.49 4.8601L27.4917 4.86309L28.3668 4.37926ZM28.516 7.86648L27.6384 7.38689L27.6342 7.39483L28.516 7.86648ZM27.6495 8.83239L27.0999 7.99695L27.0948 8.00034L27.6495 8.83239ZM26.4918 9.35795L26.2287 8.39319L25.4918 8.59416V9.35795H26.4918ZM26.4918 9.5H25.4918V10.4382L26.4281 10.498L26.4918 9.5ZM27.8342 9.96875L27.3002 10.8142L27.3002 10.8142L27.8342 9.96875ZM28.9208 15.1037L29.7899 15.5983L29.7899 15.5983L28.9208 15.1037ZM27.3512 16.4886L26.9208 15.586L26.9208 15.586L27.3512 16.4886ZM21.0657 15.4375H20.0657V16.4375H21.0657V15.4375ZM27.0103 14.7699L27.688 15.5052L27.6883 15.505L27.0103 14.7699ZM27.3654 11.7727L26.5062 12.2844L26.5088 12.2887L27.3654 11.7727ZM26.293 10.7642L25.8103 11.6401L25.8173 11.6438L26.293 10.7642ZM21.0657 10.3807V9.38068H20.0657V10.3807H21.0657ZM21.0657 8.84659H20.0657V9.84659H21.0657V8.84659ZM25.7674 8.53409L25.3321 7.6338L25.3282 7.63571L25.7674 8.53409ZM26.7901 7.65341L25.9612 7.09392L25.9565 7.10112L26.7901 7.65341ZM26.506 4.69176L25.7952 5.39513L25.7989 5.39887L26.506 4.69176ZM21.0657 4.01705V3.01705H20.0657V4.01705H21.0657ZM20.3043 17V2.45455H18.3043V17H20.3043ZM19.3043 3.45455H24.3896V1.45455H19.3043V3.45455ZM24.3896 3.45455C25.2951 3.45455 25.9558 3.6121 26.4267 3.86282L27.3666 2.09741C26.5212 1.64737 25.5106 1.45455 24.3896 1.45455V3.45455ZM26.4317 3.86545C26.9357 4.13013 27.2728 4.46408 27.49 4.86009L29.2436 3.89843C28.8169 3.1202 28.1739 2.52138 27.3616 2.09478L26.4317 3.86545ZM27.4917 4.86309C27.7263 5.28741 27.8498 5.76545 27.8498 6.31818H29.8498C29.8498 5.45046 29.6514 4.63588 29.242 3.89543L27.4917 4.86309ZM27.8498 6.31818C27.8498 6.83134 27.7576 7.16897 27.6385 7.38691L29.3935 8.34604C29.7195 7.74959 29.8498 7.05503 29.8498 6.31818H27.8498ZM27.6342 7.39483C27.4892 7.66588 27.3104 7.85845 27.0999 7.99697L28.1991 9.6678C28.7083 9.33283 29.1071 8.88147 29.3978 8.33813L27.6342 7.39483ZM27.0948 8.00034C26.8302 8.17674 26.5429 8.30749 26.2287 8.39319L26.7549 10.3227C27.2741 10.1811 27.7586 9.96152 28.2042 9.66444L27.0948 8.00034ZM25.4918 9.35795V9.5H27.4918V9.35795H25.4918ZM26.4281 10.498C26.6767 10.5138 26.9646 10.6023 27.3002 10.8142L28.3682 9.12326C27.8041 8.76699 27.1971 8.54298 26.5555 8.50203L26.4281 10.498ZM27.3002 10.8142C27.5924 10.9988 27.8612 11.277 28.0952 11.6865L29.8317 10.6942C29.4596 10.0431 28.9755 9.50687 28.3682 9.12326L27.3002 10.8142ZM28.0952 11.6865C28.2924 12.0317 28.418 12.4995 28.418 13.1364H30.418C30.418 12.2392 30.2405 11.4096 29.8317 10.6942L28.0952 11.6865ZM28.418 13.1364C28.418 13.7078 28.2899 14.1905 28.0517 14.6091L29.7899 15.5983C30.2146 14.8521 30.418 14.0232 30.418 13.1364H28.418ZM28.0517 14.6091C27.8387 14.9833 27.4857 15.3167 26.9208 15.586L27.7816 17.3913C28.6467 16.9788 29.34 16.3888 29.7899 15.5983L28.0517 14.6091ZM26.9208 15.586C26.3865 15.8407 25.6185 16 24.56 16V18C25.7932 18 26.886 17.8183 27.7816 17.3913L26.9208 15.586ZM24.56 16H19.3043V18H24.56V16ZM21.0657 16.4375H24.56V14.4375H21.0657V16.4375ZM24.56 16.4375C25.7891 16.4375 26.9239 16.2094 27.688 15.5052L26.3326 14.0345C26.1308 14.2205 25.632 14.4375 24.56 14.4375V16.4375ZM27.6883 15.505C28.3724 14.874 28.7418 14.0666 28.7418 13.1364H26.7418C26.7418 13.4846 26.6235 13.7662 26.3323 14.0348L27.6883 15.505ZM28.7418 13.1364C28.7418 12.4645 28.568 11.8312 28.222 11.2568L26.5088 12.2887C26.6647 12.5476 26.7418 12.8234 26.7418 13.1364H28.7418ZM28.2246 11.2611C27.8744 10.673 27.3789 10.2146 26.7687 9.8846L25.8173 11.6438C26.135 11.8157 26.3545 12.0297 26.5062 12.2844L28.2246 11.2611ZM26.7756 9.88837C26.1371 9.53656 25.4152 9.38068 24.6452 9.38068V11.3807C25.1442 11.3807 25.5208 11.4805 25.8104 11.64L26.7756 9.88837ZM24.6452 9.38068H21.0657V11.3807H24.6452V9.38068ZM20.0657 10.3807V15.4375H22.0657V10.3807H20.0657ZM21.0657 9.84659H24.3327V7.84659H21.0657V9.84659ZM24.3327 9.84659C24.9971 9.84659 25.6283 9.7152 26.2066 9.43247L25.3282 7.63571C25.0542 7.76965 24.7289 7.84659 24.3327 7.84659V9.84659ZM26.2027 9.43437C26.7862 9.15224 27.2683 8.74224 27.6238 8.2057L25.9565 7.10112C25.81 7.32216 25.6103 7.49927 25.3321 7.63381L26.2027 9.43437ZM27.619 8.21288C27.9992 7.64955 28.1737 7.00432 28.1737 6.31818H26.1737C26.1737 6.65477 26.0924 6.89969 25.9613 7.09394L27.619 8.21288ZM28.1737 6.31818C28.1737 5.41838 27.849 4.62051 27.2131 3.98465L25.7989 5.39887C26.0532 5.65316 26.1737 5.93957 26.1737 6.31818H28.1737ZM27.2169 3.98841C26.5051 3.26905 25.4843 3.01705 24.3896 3.01705V5.01705C25.2266 5.01705 25.6168 5.21485 25.7952 5.39512L27.2169 3.98841ZM24.3896 3.01705H21.0657V5.01705H24.3896V3.01705ZM20.0657 4.01705V8.84659H22.0657V4.01705H20.0657ZM32.3121 17H31.3121V18H32.3121V17ZM32.3121 2.45455V1.45455H31.3121V2.45455H32.3121ZM40.0252 3.03693L39.5552 3.91961L39.5597 3.92197L40.0252 3.03693ZM41.6445 4.62074L40.7577 5.08288L40.7577 5.08288L41.6445 4.62074ZM41.6445 9.1946L40.7604 8.72729L40.7604 8.72729L41.6445 9.1946ZM40.0323 10.7571L40.4911 11.6457L40.4957 11.6433L40.0323 10.7571ZM33.2781 11.3182H32.2781V12.3182H33.2781V11.3182ZM33.2781 9.72727V8.72727H32.2781V9.72727H33.2781ZM39.0735 9.38636L38.6443 8.48317L38.6408 8.48484L39.0735 9.38636ZM40.1104 8.42045L39.2221 7.9613L39.2201 7.96516L40.1104 8.42045ZM39.0664 4.37926L38.6156 5.27194L38.6227 5.27546L39.0664 4.37926ZM34.0735 4.01705V3.01705H33.0735V4.01705H34.0735ZM34.0735 17V18H35.0735V17H34.0735ZM39.1587 10.4659L40.0358 9.98545L39.7511 9.46591H39.1587V10.4659ZM42.7383 17V18H44.4263L43.6153 16.5195L42.7383 17ZM40.6928 17L39.8126 17.4746L40.0959 18H40.6928V17ZM37.1701 10.4659V9.46591H35.4949L36.2899 10.9405L37.1701 10.4659ZM33.3121 17V2.45455H31.3121V17H33.3121ZM32.3121 3.45455H37.2269V1.45455H32.3121V3.45455ZM37.2269 3.45455C38.2579 3.45455 39.0148 3.63184 39.5552 3.9196L40.4952 2.15426C39.5773 1.66551 38.4687 1.45455 37.2269 1.45455V3.45455ZM39.5597 3.92197C40.125 4.21933 40.5097 4.60686 40.7577 5.08288L42.5313 4.1586C42.0786 3.28992 41.3837 2.62158 40.4907 2.15189L39.5597 3.92197ZM40.7577 5.08288C41.0245 5.59484 41.1701 6.19747 41.1701 6.91477H43.1701C43.1701 5.91806 42.9653 4.99133 42.5313 4.1586L40.7577 5.08288ZM41.1701 6.91477C41.1701 7.63239 41.0244 8.22785 40.7604 8.72729L42.5286 9.66191C42.9654 8.8356 43.1701 7.91117 43.1701 6.91477H41.1701ZM40.7604 8.72729C40.5132 9.19496 40.1309 9.57708 39.569 9.87093L40.4957 11.6433C41.3825 11.1795 42.0751 10.52 42.5286 9.66191L40.7604 8.72729ZM39.5735 9.86856C39.0346 10.1468 38.2803 10.3182 37.2553 10.3182V12.3182C38.4841 12.3182 39.5812 12.1155 40.4911 11.6456L39.5735 9.86856ZM37.2553 10.3182H33.2781V12.3182H37.2553V10.3182ZM34.2781 11.3182V9.72727H32.2781V11.3182H34.2781ZM33.2781 10.7273H37.1985V8.72727H33.2781V10.7273ZM37.1985 10.7273C38.059 10.7273 38.8488 10.6034 39.5062 10.2879L38.6408 8.48484C38.3512 8.62382 37.891 8.72727 37.1985 8.72727V10.7273ZM39.5027 10.2896C40.1523 9.98083 40.6745 9.51381 41.0008 8.87574L39.2201 7.96516C39.1202 8.16043 38.9511 8.33735 38.6443 8.48317L39.5027 10.2896ZM40.9988 8.87961C41.3048 8.28753 41.4371 7.62109 41.4371 6.91477H39.4371C39.4371 7.37323 39.3517 7.71058 39.2221 7.9613L40.9988 8.87961ZM41.4371 6.91477C41.4371 6.20726 41.3044 5.53967 41.0049 4.94057L39.216 5.835C39.3521 6.10711 39.4371 6.45751 39.4371 6.91477H41.4371ZM41.0049 4.94057C40.6803 4.2914 40.1637 3.80663 39.5101 3.48307L38.6227 5.27546C38.9256 5.42538 39.105 5.61296 39.216 5.835L41.0049 4.94057ZM39.5172 3.48661C38.8493 3.14936 38.0451 3.01705 37.1701 3.01705V5.01705C37.8671 5.01705 38.3271 5.12621 38.6157 5.27191L39.5172 3.48661ZM37.1701 3.01705H34.0735V5.01705H37.1701V3.01705ZM33.0735 4.01705V17H35.0735V4.01705H33.0735ZM34.0735 16H32.3121V18H34.0735V16ZM38.2817 10.9464L41.8613 17.4805L43.6153 16.5195L40.0358 9.98545L38.2817 10.9464ZM42.7383 16H40.6928V18H42.7383V16ZM41.5731 16.5254L38.0503 9.99135L36.2899 10.9405L39.8126 17.4746L41.5731 16.5254ZM37.1701 11.4659H39.1587V9.46591H37.1701V11.4659ZM45.7017 17V18H46.4079L46.6441 17.3345L45.7017 17ZM43.8551 17L42.9164 16.6553L42.4226 18H43.8551V17ZM49.196 2.45455V1.45455H48.4979L48.2573 2.10986L49.196 2.45455ZM51.0142 2.45455L51.9529 2.10986L51.7123 1.45455H51.0142V2.45455ZM56.3551 17V18H57.7876L57.2938 16.6553L56.3551 17ZM54.5085 17L53.5661 17.3345L53.8024 18H54.5085V17ZM50.1619 4.75568L51.1043 4.42115L50.8681 3.75568H50.1619V4.75568ZM50.0483 4.75568V3.75568H49.3421L49.1059 4.42115L50.0483 4.75568ZM46.3835 11.3182V10.3182H45.3835V11.3182H46.3835ZM53.8267 11.3182H54.8267V10.3182H53.8267V11.3182ZM53.8267 12.8807V13.8807H54.8267V12.8807H53.8267ZM46.3835 12.8807H45.3835V13.8807H46.3835V12.8807ZM45.7017 16H43.8551V18H45.7017V16ZM44.7938 17.3447L50.1347 2.79923L48.2573 2.10986L42.9164 16.6553L44.7938 17.3447ZM49.196 3.45455H51.0142V1.45455H49.196V3.45455ZM50.0755 2.79923L55.4164 17.3447L57.2938 16.6553L51.9529 2.10986L50.0755 2.79923ZM56.3551 16H54.5085V18H56.3551V16ZM55.4509 16.6655L51.1043 4.42115L49.2195 5.09022L53.5661 17.3345L55.4509 16.6655ZM50.1619 3.75568H50.0483V5.75568H50.1619V3.75568ZM49.1059 4.42115L44.7593 16.6655L46.6441 17.3345L50.9907 5.09022L49.1059 4.42115ZM46.3835 12.3182H53.8267V10.3182H46.3835V12.3182ZM52.8267 11.3182V12.8807H54.8267V11.3182H52.8267ZM53.8267 11.8807H46.3835V13.8807H53.8267V11.8807ZM47.3835 12.8807V11.3182H45.3835V12.8807H47.3835ZM58.6207 17H57.6207V18H58.6207V17ZM58.6207 2.45455V1.45455H57.6207V2.45455H58.6207ZM66.3338 3.03693L65.8638 3.91961L65.8683 3.92197L66.3338 3.03693ZM67.9531 4.62074L67.0663 5.08288L67.0663 5.08288L67.9531 4.62074ZM67.9531 9.1946L67.069 8.72729L67.069 8.72729L67.9531 9.1946ZM66.3409 10.7571L66.7997 11.6457L66.8043 11.6433L66.3409 10.7571ZM59.5866 11.3182H58.5866V12.3182H59.5866V11.3182ZM59.5866 9.72727V8.72727H58.5866V9.72727H59.5866ZM65.3821 9.38636L64.9529 8.48317L64.9494 8.48484L65.3821 9.38636ZM66.419 8.42045L65.5307 7.9613L65.5287 7.96516L66.419 8.42045ZM65.375 4.37926L64.9242 5.27194L64.9313 5.27546L65.375 4.37926ZM60.3821 4.01705V3.01705H59.3821V4.01705H60.3821ZM60.3821 17V18H61.3821V17H60.3821ZM65.4673 10.4659L66.3443 9.98545L66.0597 9.46591H65.4673V10.4659ZM69.0469 17V18H70.7349L69.9239 16.5195L69.0469 17ZM67.0014 17L66.1212 17.4746L66.4045 18H67.0014V17ZM63.4787 10.4659V9.46591H61.8035L62.5985 10.9405L63.4787 10.4659ZM59.6207 17V2.45455H57.6207V17H59.6207ZM58.6207 3.45455H63.5355V1.45455H58.6207V3.45455ZM63.5355 3.45455C64.5664 3.45455 65.3234 3.63184 65.8638 3.9196L66.8038 2.15426C65.8859 1.66551 64.7773 1.45455 63.5355 1.45455V3.45455ZM65.8683 3.92197C66.4336 4.21933 66.8183 4.60686 67.0663 5.08288L68.8399 4.1586C68.3872 3.28992 67.6923 2.62158 66.7993 2.15189L65.8683 3.92197ZM67.0663 5.08288C67.3331 5.59484 67.4787 6.19747 67.4787 6.91477H69.4787C69.4787 5.91806 69.2739 4.99133 68.8399 4.1586L67.0663 5.08288ZM67.4787 6.91477C67.4787 7.63239 67.333 8.22785 67.069 8.72729L68.8372 9.66191C69.274 8.8356 69.4787 7.91117 69.4787 6.91477H67.4787ZM67.069 8.72729C66.8218 9.19496 66.4395 9.57708 65.8776 9.87093L66.8043 11.6433C67.6911 11.1795 68.3837 10.52 68.8372 9.66191L67.069 8.72729ZM65.8821 9.86856C65.3432 10.1468 64.5889 10.3182 63.5639 10.3182V12.3182C64.7927 12.3182 65.8898 12.1155 66.7997 11.6456L65.8821 9.86856ZM63.5639 10.3182H59.5866V12.3182H63.5639V10.3182ZM60.5866 11.3182V9.72727H58.5866V11.3182H60.5866ZM59.5866 10.7273H63.5071V8.72727H59.5866V10.7273ZM63.5071 10.7273C64.3676 10.7273 65.1574 10.6034 65.8148 10.2879L64.9494 8.48484C64.6598 8.62382 64.1996 8.72727 63.5071 8.72727V10.7273ZM65.8113 10.2896C66.4609 9.98083 66.9831 9.51381 67.3094 8.87574L65.5287 7.96516C65.4288 8.16043 65.2597 8.33735 64.9529 8.48317L65.8113 10.2896ZM67.3074 8.87961C67.6134 8.28753 67.7457 7.62109 67.7457 6.91477H65.7457C65.7457 7.37323 65.6603 7.71058 65.5307 7.9613L67.3074 8.87961ZM67.7457 6.91477C67.7457 6.20726 67.613 5.53967 67.3135 4.94057L65.5246 5.835C65.6607 6.10711 65.7457 6.45751 65.7457 6.91477H67.7457ZM67.3135 4.94057C66.9889 4.2914 66.4723 3.80663 65.8187 3.48307L64.9313 5.27546C65.2342 5.42538 65.4136 5.61296 65.5246 5.835L67.3135 4.94057ZM65.8257 3.48661C65.1579 3.14936 64.3537 3.01705 63.4787 3.01705V5.01705C64.1757 5.01705 64.6357 5.12621 64.9243 5.27191L65.8257 3.48661ZM63.4787 3.01705H60.3821V5.01705H63.4787V3.01705ZM59.3821 4.01705V17H61.3821V4.01705H59.3821ZM60.3821 16H58.6207V18H60.3821V16ZM64.5903 10.9464L68.1699 17.4805L69.9239 16.5195L66.3443 9.98545L64.5903 10.9464ZM69.0469 16H67.0014V18H69.0469V16ZM67.8816 16.5254L64.3589 9.99135L62.5985 10.9405L66.1212 17.4746L67.8816 16.5254ZM63.4787 11.4659H65.4673V9.46591H63.4787V11.4659ZM69.6754 2.45455V1.45455H67.887L68.8235 2.97817L69.6754 2.45455ZM71.6925 2.45455L72.5522 1.94376L72.2615 1.45455H71.6925V2.45455ZM75.7266 9.24432L74.8669 9.75511L75.1575 10.2443H75.7266V9.24432ZM75.897 9.24432V10.2443H76.4661L76.7567 9.75511L75.897 9.24432ZM79.9311 2.45455V1.45455H79.3621L79.0714 1.94376L79.9311 2.45455ZM81.9482 2.45455L82.8001 2.97817L83.7365 1.45455H81.9482V2.45455ZM76.6925 11.0057L75.8405 10.4821L75.6925 10.7229V11.0057H76.6925ZM76.6925 17V18H77.6925V17H76.6925ZM74.9311 17H73.9311V18H74.9311V17ZM74.9311 11.0057H75.9311V10.7229L75.7831 10.4821L74.9311 11.0057ZM69.6754 3.45455H71.6925V1.45455H69.6754V3.45455ZM70.8328 2.96533L74.8669 9.75511L76.5863 8.73353L72.5522 1.94376L70.8328 2.96533ZM75.7266 10.2443H75.897V8.24432H75.7266V10.2443ZM76.7567 9.75511L80.7908 2.96533L79.0714 1.94376L75.0373 8.73353L76.7567 9.75511ZM79.9311 3.45455H81.9482V1.45455H79.9311V3.45455ZM81.0962 1.93092L75.8405 10.4821L77.5444 11.5293L82.8001 2.97817L81.0962 1.93092ZM75.6925 11.0057V17H77.6925V11.0057H75.6925ZM76.6925 16H74.9311V18H76.6925V16ZM75.9311 17V11.0057H73.9311V17H75.9311ZM75.7831 10.4821L70.5274 1.93092L68.8235 2.97817L74.0792 11.5293L75.7831 10.4821ZM101.293 13.7045L100.397 13.2604L100.397 13.2604L101.293 13.7045ZM99.0131 16.2898L99.5446 17.1368L99.5446 17.1368L99.0131 16.2898ZM92.3938 16.2898L91.8623 17.1368L91.8623 17.1368L92.3938 16.2898ZM90.114 13.7045L91.0099 13.2604L91.0099 13.2604L90.114 13.7045ZM90.114 5.75L89.2181 5.30583L90.114 5.75ZM99.0131 3.16477L99.5446 2.31771L99.5446 2.31771L99.0131 3.16477ZM101.293 5.75L100.397 6.19417L100.397 6.19417L101.293 5.75ZM99.7873 6.53835L98.8861 6.97173L98.888 6.97571L99.7873 6.53835ZM98.0898 4.57102L97.5588 5.41839L97.5614 5.41997L98.0898 4.57102ZM93.31 4.57102L92.7815 3.72207L92.779 3.72366L93.31 4.57102ZM91.6126 6.53835L90.7133 6.10099L90.7114 6.10498L91.6126 6.53835ZM91.6126 12.9162L90.7113 13.3496L90.7133 13.3536L91.6126 12.9162ZM93.31 14.8835L92.779 15.7309L92.7815 15.7325L93.31 14.8835ZM98.0898 14.8835L97.5614 14.0346L97.5588 14.0362L98.0898 14.8835ZM99.7873 12.9162L98.888 12.4788L98.8861 12.4828L99.7873 12.9162ZM101.124 9.72727C101.124 11.1421 100.869 12.3091 100.397 13.2604L102.189 14.1487C102.825 12.8651 103.124 11.3807 103.124 9.72727H101.124ZM100.397 13.2604C99.9171 14.2285 99.2767 14.9438 98.4816 15.4427L99.5446 17.1368C100.681 16.4236 101.561 15.4155 102.189 14.1487L100.397 13.2604ZM98.4816 15.4427C97.6889 15.9401 96.7732 16.1989 95.7035 16.1989V18.1989C97.1149 18.1989 98.4055 17.8516 99.5446 17.1368L98.4816 15.4427ZM95.7035 16.1989C94.6338 16.1989 93.718 15.9401 92.9253 15.4427L91.8623 17.1368C93.0014 17.8516 94.2921 18.1989 95.7035 18.1989V16.1989ZM92.9253 15.4427C92.1302 14.9438 91.4899 14.2285 91.0099 13.2604L89.2181 14.1487C89.8461 15.4155 90.7256 16.4236 91.8623 17.1368L92.9253 15.4427ZM91.0099 13.2604C90.5383 12.3091 90.283 11.1421 90.283 9.72727H88.283C88.283 11.3807 88.5817 12.8651 89.2181 14.1487L91.0099 13.2604ZM90.283 9.72727C90.283 8.31249 90.5383 7.14542 91.0099 6.19417L89.2181 5.30583C88.5817 6.58942 88.283 8.07387 88.283 9.72727H90.283ZM91.0099 6.19417C91.4899 5.22607 92.1302 4.51071 92.9253 4.01184L91.8623 2.31771C90.7256 3.03096 89.8461 4.03908 89.2181 5.30583L91.0099 6.19417ZM92.9253 4.01184C93.718 3.51445 94.6338 3.25568 95.7035 3.25568V1.25568C94.2921 1.25568 93.0014 1.60297 91.8623 2.31771L92.9253 4.01184ZM95.7035 3.25568C96.7732 3.25568 97.6889 3.51445 98.4816 4.01184L99.5446 2.31771C98.4055 1.60297 97.1149 1.25568 95.7035 1.25568V3.25568ZM98.4816 4.01184C99.2767 4.51071 99.9171 5.22607 100.397 6.19417L102.189 5.30583C101.561 4.03908 100.681 3.03096 99.5446 2.31771L98.4816 4.01184ZM100.397 6.19417C100.869 7.14542 101.124 8.31249 101.124 9.72727H103.124C103.124 8.07387 102.825 6.58942 102.189 5.30583L100.397 6.19417ZM101.419 9.72727C101.419 8.36099 101.191 7.13894 100.687 6.10099L98.888 6.97571C99.226 7.67072 99.4194 8.57462 99.4194 9.72727H101.419ZM100.689 6.10498C100.202 5.09225 99.5164 4.28112 98.6183 3.72208L97.5614 5.41997C98.0932 5.75107 98.5397 6.2515 98.8861 6.97172L100.689 6.10498ZM98.6209 3.72366C97.7432 3.17367 96.762 2.90341 95.7035 2.90341V4.90341C96.4063 4.90341 97.016 5.07822 97.5588 5.41839L98.6209 3.72366ZM95.7035 2.90341C94.6449 2.90341 93.6625 3.17365 92.7815 3.72208L93.8385 5.41997C94.3874 5.07825 95.0007 4.90341 95.7035 4.90341V2.90341ZM92.779 3.72366C91.8874 4.28239 91.2041 5.09179 90.7133 6.10099L92.5119 6.97571C92.8638 6.25196 93.3122 5.74981 93.841 5.41839L92.779 3.72366ZM90.7114 6.10498C90.2128 7.14183 89.9876 8.36238 89.9876 9.72727H91.9876C91.9876 8.57323 92.179 7.66783 92.5138 6.97172L90.7114 6.10498ZM89.9876 9.72727C89.9876 11.0922 90.2128 12.3127 90.7114 13.3496L92.5138 12.4828C92.179 11.7867 91.9876 10.8813 91.9876 9.72727H89.9876ZM90.7133 13.3536C91.2041 14.3628 91.8874 15.1722 92.779 15.7309L93.841 14.0362C93.3122 13.7047 92.8638 13.2026 92.5119 12.4788L90.7133 13.3536ZM92.7815 15.7325C93.6625 16.2809 94.6449 16.5511 95.7035 16.5511V14.5511C95.0007 14.5511 94.3874 14.3763 93.8385 14.0346L92.7815 15.7325ZM95.7035 16.5511C96.762 16.5511 97.7432 16.2809 98.6209 15.7309L97.5588 14.0362C97.016 14.3763 96.4063 14.5511 95.7035 14.5511V16.5511ZM98.6183 15.7325C99.5164 15.1734 100.202 14.3623 100.689 13.3496L98.8861 12.4828C98.5397 13.203 98.0932 13.7035 97.5614 14.0346L98.6183 15.7325ZM100.687 13.3536C101.191 12.3156 101.419 11.0936 101.419 9.72727H99.4194C99.4194 10.8799 99.226 11.7838 98.888 12.4788L100.687 13.3536ZM105.086 17H104.086V18H105.086V17ZM105.086 2.45455V1.45455H104.086V2.45455H105.086ZM113.807 2.45455H114.807V1.45455H113.807V2.45455ZM113.807 4.01705V5.01705H114.807V4.01705H113.807ZM106.847 4.01705V3.01705H105.847V4.01705H106.847ZM106.847 8.93182H105.847V9.93182H106.847V8.93182ZM113.154 8.93182H114.154V7.93182H113.154V8.93182ZM113.154 10.4943V11.4943H114.154V10.4943H113.154ZM106.847 10.4943V9.49432H105.847V10.4943H106.847ZM106.847 17V18H107.847V17H106.847ZM106.086 17V2.45455H104.086V17H106.086ZM105.086 3.45455H113.807V1.45455H105.086V3.45455ZM112.807 2.45455V4.01705H114.807V2.45455H112.807ZM113.807 3.01705H106.847V5.01705H113.807V3.01705ZM105.847 4.01705V8.93182H107.847V4.01705H105.847ZM106.847 9.93182H113.154V7.93182H106.847V9.93182ZM112.154 8.93182V10.4943H114.154V8.93182H112.154ZM113.154 9.49432H106.847V11.4943H113.154V9.49432ZM105.847 10.4943V17H107.847V10.4943H105.847ZM106.847 16H105.086V18H106.847V16ZM122.449 17H121.449V18H122.449V17ZM122.449 2.45455V1.45455H121.449V2.45455H122.449ZM124.21 2.45455H125.21V1.45455H124.21V2.45455ZM124.21 15.4375H123.21V16.4375H124.21V15.4375ZM130.972 15.4375H131.972V14.4375H130.972V15.4375ZM130.972 17V18H131.972V17H130.972ZM123.449 17V2.45455H121.449V17H123.449ZM122.449 3.45455H124.21V1.45455H122.449V3.45455ZM123.21 2.45455V15.4375H125.21V2.45455H123.21ZM124.21 16.4375H130.972V14.4375H124.21V16.4375ZM129.972 15.4375V17H131.972V15.4375H129.972ZM130.972 16H122.449V18H130.972V16ZM135.46 2.45455H136.46V1.45455H135.46V2.45455ZM135.46 17V18H136.46V17H135.46ZM133.699 17H132.699V18H133.699V17ZM133.699 2.45455V1.45455H132.699V2.45455H133.699ZM134.46 2.45455V17H136.46V2.45455H134.46ZM135.46 16H133.699V18H135.46V16ZM134.699 17V2.45455H132.699V17H134.699ZM133.699 3.45455H135.46V1.45455H133.699V3.45455ZM138.992 17H137.992V18H138.992V17ZM138.992 2.45455V1.45455H137.992V2.45455H138.992ZM147.713 2.45455H148.713V1.45455H147.713V2.45455ZM147.713 4.01705V5.01705H148.713V4.01705H147.713ZM140.753 4.01705V3.01705H139.753V4.01705H140.753ZM140.753 8.93182H139.753V9.93182H140.753V8.93182ZM147.06 8.93182H148.06V7.93182H147.06V8.93182ZM147.06 10.4943V11.4943H148.06V10.4943H147.06ZM140.753 10.4943V9.49432H139.753V10.4943H140.753ZM140.753 17V18H141.753V17H140.753ZM139.992 17V2.45455H137.992V17H139.992ZM138.992 3.45455H147.713V1.45455H138.992V3.45455ZM146.713 2.45455V4.01705H148.713V2.45455H146.713ZM147.713 3.01705H140.753V5.01705H147.713V3.01705ZM139.753 4.01705V8.93182H141.753V4.01705H139.753ZM140.753 9.93182H147.06V7.93182H140.753V9.93182ZM146.06 8.93182V10.4943H148.06V8.93182H146.06ZM147.06 9.49432H140.753V11.4943H147.06V9.49432ZM139.753 10.4943V17H141.753V10.4943H139.753ZM140.753 16H138.992V18H140.753V16ZM150.73 17H149.73V18H150.73V17ZM150.73 2.45455V1.45455H149.73V2.45455H150.73ZM159.509 2.45455H160.509V1.45455H159.509V2.45455ZM159.509 4.01705V5.01705H160.509V4.01705H159.509ZM152.491 4.01705V3.01705H151.491V4.01705H152.491ZM152.491 8.93182H151.491V9.93182H152.491V8.93182ZM159.054 8.93182H160.054V7.93182H159.054V8.93182ZM159.054 10.4943V11.4943H160.054V10.4943H159.054ZM152.491 10.4943V9.49432H151.491V10.4943H152.491ZM152.491 15.4375H151.491V16.4375H152.491V15.4375ZM159.622 15.4375H160.622V14.4375H159.622V15.4375ZM159.622 17V18H160.622V17H159.622ZM151.73 17V2.45455H149.73V17H151.73ZM150.73 3.45455H159.509V1.45455H150.73V3.45455ZM158.509 2.45455V4.01705H160.509V2.45455H158.509ZM159.509 3.01705H152.491V5.01705H159.509V3.01705ZM151.491 4.01705V8.93182H153.491V4.01705H151.491ZM152.491 9.93182H159.054V7.93182H152.491V9.93182ZM158.054 8.93182V10.4943H160.054V8.93182H158.054ZM159.054 9.49432H152.491V11.4943H159.054V9.49432ZM151.491 10.4943V15.4375H153.491V10.4943H151.491ZM152.491 16.4375H159.622V14.4375H152.491V16.4375ZM158.622 15.4375V17H160.622V15.4375H158.622ZM159.622 16H150.73V18H159.622V16Z" fill="white" mask="url(#path-1-outside-1_900_95)"/>
</g>
<defs>
<filter id="filter0_d_900_95" x="0.76136" y="0.255676" width="166.861" height="24.9432" filterUnits="userSpaceOnUse" color-interpolation-filters="sRGB">
<feFlood flood-opacity="0" result="BackgroundImageFix"/>
<feColorMatrix in="SourceAlpha" type="matrix" values="0 0 0 0 0 0 0 0 0 0 0 0 0 0 0 0 0 0 127 0" result="hardAlpha"/>
<feOffset dx="3" dy="3"/>
<feGaussianBlur stdDeviation="2.5"/>
<feComposite in2="hardAlpha" operator="out"/>
<feColorMatrix type="matrix" values="0 0 0 0 0 0 0 0 0 0 0 0 0 0 0 0 0 0 0.5 0"/>
<feBlend mode="normal" in2="BackgroundImageFix" result="effect1_dropShadow_900_95"/>
<feBlend mode="normal" in="SourceGraphic" in2="effect1_dropShadow_900_95" result="shape"/>
</filter>
<linearGradient id="paint0_linear_900_95" x1="1" y1="10" x2="161" y2="10" gradientUnits="userSpaceOnUse">
<stop stop-color="#AE70E9"/>
<stop offset="1" stop-color="#0156CF"/>
</linearGradient>
</defs>
</svg>
