<svg width="166" height="22" viewBox="0 0 166 22" fill="none" xmlns="http://www.w3.org/2000/svg">
<g filter="url(#filter0_d_900_96)">
<path d="M2.53125 3.85937V3H8.53125V3.85937H6.01563V11H5.04688V3.85937H2.53125ZM10.8232 7.39062V11H9.90137V3H10.8232V5.9375H10.9014C11.042 5.6276 11.2529 5.38151 11.5342 5.19922C11.818 5.01432 12.1956 4.92188 12.667 4.92188C13.0758 4.92188 13.4339 5.00391 13.7412 5.16797C14.0485 5.32943 14.2868 5.57812 14.4561 5.91406C14.6279 6.2474 14.7139 6.67187 14.7139 7.1875V11H13.792V7.25C13.792 6.77344 13.6683 6.40495 13.4209 6.14453C13.1761 5.88151 12.8363 5.75 12.4014 5.75C12.0993 5.75 11.8285 5.8138 11.5889 5.94141C11.3519 6.06901 11.1644 6.25521 11.0264 6.5C10.891 6.74479 10.8232 7.04167 10.8232 7.39062ZM18.166 11.1406C17.7858 11.1406 17.4408 11.069 17.1309 10.9258C16.821 10.7799 16.5749 10.5703 16.3926 10.2969C16.2103 10.0208 16.1191 9.6875 16.1191 9.29687C16.1191 8.95312 16.1868 8.67448 16.3223 8.46094C16.4577 8.24479 16.6387 8.07552 16.8652 7.95312C17.0918 7.83073 17.3418 7.73958 17.6152 7.67969C17.8913 7.61719 18.1686 7.56771 18.4473 7.53125C18.8118 7.48437 19.1074 7.44922 19.334 7.42578C19.5632 7.39974 19.7298 7.35677 19.834 7.29687C19.9408 7.23698 19.9941 7.13281 19.9941 6.98437V6.95312C19.9941 6.56771 19.8887 6.26823 19.6777 6.05469C19.4694 5.84115 19.153 5.73437 18.7285 5.73437C18.2884 5.73437 17.9434 5.83073 17.6934 6.02344C17.4434 6.21615 17.2676 6.42187 17.166 6.64062L16.291 6.32812C16.4473 5.96354 16.6556 5.67969 16.916 5.47656C17.179 5.27083 17.4655 5.1276 17.7754 5.04687C18.0879 4.96354 18.3952 4.92188 18.6973 4.92188C18.89 4.92188 19.1113 4.94531 19.3613 4.99219C19.6139 5.03646 19.8574 5.12891 20.0918 5.26953C20.3288 5.41016 20.5254 5.6224 20.6816 5.90625C20.8379 6.1901 20.916 6.57031 20.916 7.04688V11H19.9941V10.1875H19.9473C19.8848 10.3177 19.7806 10.457 19.6348 10.6055C19.4889 10.7539 19.2949 10.8802 19.0527 10.9844C18.8105 11.0885 18.515 11.1406 18.166 11.1406ZM18.3066 10.3125C18.6712 10.3125 18.9785 10.2409 19.2285 10.0977C19.4811 9.95443 19.6712 9.76953 19.7988 9.54297C19.929 9.31641 19.9941 9.07812 19.9941 8.82812V7.98437C19.9551 8.03125 19.8691 8.07422 19.7363 8.11328C19.6061 8.14974 19.4551 8.18229 19.2832 8.21094C19.1139 8.23698 18.9486 8.26042 18.7871 8.28125C18.6283 8.29948 18.4993 8.3151 18.4004 8.32812C18.1608 8.35937 17.9368 8.41016 17.7285 8.48047C17.5228 8.54818 17.3561 8.65104 17.2285 8.78906C17.1035 8.92448 17.041 9.10937 17.041 9.34375C17.041 9.66406 17.1595 9.90625 17.3965 10.0703C17.6361 10.2318 17.9395 10.3125 18.3066 10.3125ZM22.5986 11V5H23.4893V5.9375H23.5674C23.6924 5.61719 23.8942 5.36849 24.1729 5.19141C24.4515 5.01172 24.7861 4.92188 25.1768 4.92188C25.5726 4.92188 25.902 5.01172 26.165 5.19141C26.4307 5.36849 26.6377 5.61719 26.7861 5.9375H26.8486C27.0023 5.6276 27.2327 5.38151 27.54 5.19922C27.8473 5.01432 28.2158 4.92188 28.6455 4.92188C29.182 4.92188 29.6208 5.08984 29.9619 5.42578C30.3031 5.75911 30.4736 6.27865 30.4736 6.98437V11H29.5518V6.98437C29.5518 6.54167 29.4307 6.22526 29.1885 6.03516C28.9463 5.84505 28.6611 5.75 28.333 5.75C27.9111 5.75 27.5843 5.8776 27.3525 6.13281C27.1208 6.38542 27.0049 6.70573 27.0049 7.09375V11H26.0674V6.89062C26.0674 6.54948 25.9567 6.27474 25.7354 6.06641C25.514 5.85547 25.2288 5.75 24.8799 5.75C24.6403 5.75 24.4163 5.8138 24.208 5.94141C24.0023 6.06901 23.8356 6.24609 23.708 6.47266C23.583 6.69661 23.5205 6.95573 23.5205 7.25V11H22.5986ZM32.1592 11V5H33.0498V5.9375H33.1279C33.2529 5.61719 33.4548 5.36849 33.7334 5.19141C34.012 5.01172 34.3467 4.92188 34.7373 4.92188C35.1331 4.92188 35.4626 5.01172 35.7256 5.19141C35.9912 5.36849 36.1982 5.61719 36.3467 5.9375H36.4092C36.5628 5.6276 36.7933 5.38151 37.1006 5.19922C37.4079 5.01432 37.7764 4.92188 38.2061 4.92188C38.7425 4.92188 39.1813 5.08984 39.5225 5.42578C39.8636 5.75911 40.0342 6.27865 40.0342 6.98437V11H39.1123V6.98437C39.1123 6.54167 38.9912 6.22526 38.749 6.03516C38.5068 5.84505 38.2217 5.75 37.8936 5.75C37.4717 5.75 37.1449 5.8776 36.9131 6.13281C36.6813 6.38542 36.5654 6.70573 36.5654 7.09375V11H35.6279V6.89062C35.6279 6.54948 35.5173 6.27474 35.2959 6.06641C35.0745 5.85547 34.7894 5.75 34.4404 5.75C34.2008 5.75 33.9769 5.8138 33.7686 5.94141C33.5628 6.06901 33.3962 6.24609 33.2686 6.47266C33.1436 6.69661 33.0811 6.95573 33.0811 7.25V11H32.1592ZM43.4854 11.1406C43.1051 11.1406 42.7601 11.069 42.4502 10.9258C42.1403 10.7799 41.8942 10.5703 41.7119 10.2969C41.5296 10.0208 41.4385 9.6875 41.4385 9.29687C41.4385 8.95312 41.5062 8.67448 41.6416 8.46094C41.777 8.24479 41.958 8.07552 42.1846 7.95312C42.4111 7.83073 42.6611 7.73958 42.9346 7.67969C43.2106 7.61719 43.488 7.56771 43.7666 7.53125C44.1312 7.48437 44.4268 7.44922 44.6533 7.42578C44.8825 7.39974 45.0492 7.35677 45.1533 7.29687C45.2601 7.23698 45.3135 7.13281 45.3135 6.98437V6.95312C45.3135 6.56771 45.208 6.26823 44.9971 6.05469C44.7887 5.84115 44.4723 5.73437 44.0479 5.73437C43.6077 5.73437 43.2627 5.83073 43.0127 6.02344C42.7627 6.21615 42.5869 6.42187 42.4854 6.64062L41.6104 6.32812C41.7666 5.96354 41.9749 5.67969 42.2354 5.47656C42.4984 5.27083 42.7848 5.1276 43.0947 5.04687C43.4072 4.96354 43.7145 4.92188 44.0166 4.92188C44.2093 4.92188 44.4307 4.94531 44.6807 4.99219C44.9333 5.03646 45.1768 5.12891 45.4111 5.26953C45.6481 5.41016 45.8447 5.6224 46.001 5.90625C46.1572 6.1901 46.2354 6.57031 46.2354 7.04688V11H45.3135V10.1875H45.2666C45.2041 10.3177 45.0999 10.457 44.9541 10.6055C44.8083 10.7539 44.6143 10.8802 44.3721 10.9844C44.1299 11.0885 43.8343 11.1406 43.4854 11.1406ZM43.626 10.3125C43.9906 10.3125 44.2979 10.2409 44.5479 10.0977C44.8005 9.95443 44.9906 9.76953 45.1182 9.54297C45.2484 9.31641 45.3135 9.07812 45.3135 8.82812V7.98437C45.2744 8.03125 45.1885 8.07422 45.0557 8.11328C44.9255 8.14974 44.7744 8.18229 44.6025 8.21094C44.4333 8.23698 44.2679 8.26042 44.1064 8.28125C43.9476 8.29948 43.8187 8.3151 43.7197 8.32812C43.4801 8.35937 43.2562 8.41016 43.0479 8.48047C42.8421 8.54818 42.6755 8.65104 42.5479 8.78906C42.4229 8.92448 42.3604 9.10937 42.3604 9.34375C42.3604 9.66406 42.4788 9.90625 42.7158 10.0703C42.9554 10.2318 43.2588 10.3125 43.626 10.3125ZM52.168 6.34375L51.3398 6.57812C51.2878 6.4401 51.2109 6.30599 51.1094 6.17578C51.0104 6.04297 50.875 5.93359 50.7031 5.84766C50.5313 5.76172 50.3112 5.71875 50.043 5.71875C49.6758 5.71875 49.3698 5.80339 49.125 5.97266C48.8828 6.13932 48.7617 6.35156 48.7617 6.60937C48.7617 6.83854 48.8451 7.01953 49.0117 7.15234C49.1784 7.28516 49.4388 7.39583 49.793 7.48437L50.6836 7.70313C51.2201 7.83333 51.6198 8.03255 51.8828 8.30078C52.1458 8.56641 52.2773 8.90885 52.2773 9.32812C52.2773 9.67187 52.1784 9.97917 51.9805 10.25C51.7852 10.5208 51.5117 10.7344 51.1602 10.8906C50.8086 11.0469 50.3997 11.125 49.9336 11.125C49.3216 11.125 48.8151 10.9922 48.4141 10.7266C48.013 10.4609 47.7591 10.0729 47.6523 9.5625L48.5273 9.34375C48.6107 9.66667 48.7682 9.90885 49 10.0703C49.2344 10.2318 49.5404 10.3125 49.918 10.3125C50.3477 10.3125 50.6888 10.2214 50.9414 10.0391C51.1966 9.85417 51.3242 9.63281 51.3242 9.375C51.3242 9.16667 51.2513 8.99219 51.1055 8.85156C50.9596 8.70833 50.7357 8.60156 50.4336 8.53125L49.4336 8.29687C48.8841 8.16667 48.4805 7.96484 48.2227 7.69141C47.9674 7.41536 47.8398 7.07031 47.8398 6.65625C47.8398 6.31771 47.9349 6.01823 48.125 5.75781C48.3177 5.4974 48.5794 5.29297 48.9102 5.14453C49.2435 4.99609 49.6211 4.92188 50.043 4.92188C50.6367 4.92188 51.1029 5.05208 51.4414 5.3125C51.7826 5.57292 52.0247 5.91667 52.168 6.34375ZM55.4307 11.1406C55.0505 11.1406 54.7054 11.069 54.3955 10.9258C54.0856 10.7799 53.8395 10.5703 53.6572 10.2969C53.4749 10.0208 53.3838 9.6875 53.3838 9.29687C53.3838 8.95312 53.4515 8.67448 53.5869 8.46094C53.7223 8.24479 53.9033 8.07552 54.1299 7.95312C54.3564 7.83073 54.6064 7.73958 54.8799 7.67969C55.1559 7.61719 55.4333 7.56771 55.7119 7.53125C56.0765 7.48437 56.3721 7.44922 56.5986 7.42578C56.8278 7.39974 56.9945 7.35677 57.0986 7.29687C57.2054 7.23698 57.2588 7.13281 57.2588 6.98437V6.95312C57.2588 6.56771 57.1533 6.26823 56.9424 6.05469C56.734 5.84115 56.4176 5.73437 55.9932 5.73437C55.5531 5.73437 55.208 5.83073 54.958 6.02344C54.708 6.21615 54.5322 6.42187 54.4307 6.64062L53.5557 6.32812C53.7119 5.96354 53.9202 5.67969 54.1807 5.47656C54.4437 5.27083 54.7301 5.1276 55.04 5.04687C55.3525 4.96354 55.6598 4.92188 55.9619 4.92188C56.1546 4.92188 56.376 4.94531 56.626 4.99219C56.8786 5.03646 57.1221 5.12891 57.3564 5.26953C57.5934 5.41016 57.79 5.6224 57.9463 5.90625C58.1025 6.1901 58.1807 6.57031 58.1807 7.04688V11H57.2588V10.1875H57.2119C57.1494 10.3177 57.0452 10.457 56.8994 10.6055C56.7536 10.7539 56.5596 10.8802 56.3174 10.9844C56.0752 11.0885 55.7796 11.1406 55.4307 11.1406ZM55.5713 10.3125C55.9359 10.3125 56.2432 10.2409 56.4932 10.0977C56.7458 9.95443 56.9359 9.76953 57.0635 9.54297C57.1937 9.31641 57.2588 9.07812 57.2588 8.82812V7.98437C57.2197 8.03125 57.1338 8.07422 57.001 8.11328C56.8708 8.14974 56.7197 8.18229 56.5479 8.21094C56.3786 8.23698 56.2132 8.26042 56.0518 8.28125C55.8929 8.29948 55.764 8.3151 55.665 8.32812C55.4255 8.35937 55.2015 8.41016 54.9932 8.48047C54.7874 8.54818 54.6208 8.65104 54.4932 8.78906C54.3682 8.92448 54.3057 9.10937 54.3057 9.34375C54.3057 9.66406 54.4242 9.90625 54.6611 10.0703C54.9007 10.2318 55.2041 10.3125 55.5713 10.3125ZM62.4727 5V5.78125H59.3633V5H62.4727ZM60.2695 3.5625H61.1914V9.28125C61.1914 9.54167 61.2292 9.73698 61.3047 9.86719C61.3828 9.99479 61.4818 10.0807 61.6016 10.125C61.724 10.1667 61.8529 10.1875 61.9883 10.1875C62.0898 10.1875 62.1732 10.1823 62.2383 10.1719C62.3034 10.1589 62.3555 10.1484 62.3945 10.1406L62.582 10.9687C62.5195 10.9922 62.4323 11.0156 62.3203 11.0391C62.2083 11.0651 62.0664 11.0781 61.8945 11.0781C61.6341 11.0781 61.3789 11.0221 61.1289 10.9102C60.8815 10.7982 60.6758 10.6276 60.5117 10.3984C60.3503 10.1693 60.2695 9.88021 60.2695 9.53125V3.5625ZM72.3281 3H73.2969V8.29687C73.2969 8.84375 73.168 9.33203 72.9102 9.76172C72.6549 10.1888 72.2943 10.526 71.8281 10.7734C71.362 11.0182 70.8151 11.1406 70.1875 11.1406C69.5599 11.1406 69.013 11.0182 68.5469 10.7734C68.0807 10.526 67.7188 10.1888 67.4609 9.76172C67.2057 9.33203 67.0781 8.84375 67.0781 8.29687V3H68.0469V8.21875C68.0469 8.60937 68.1328 8.95703 68.3047 9.26172C68.4766 9.5638 68.7214 9.80208 69.0391 9.97656C69.3594 10.1484 69.7422 10.2344 70.1875 10.2344C70.6328 10.2344 71.0156 10.1484 71.3359 9.97656C71.6563 9.80208 71.901 9.5638 72.0703 9.26172C72.2422 8.95703 72.3281 8.60937 72.3281 8.21875V3ZM76.0283 7.39062V11H75.1064V5H75.9971V5.9375H76.0752C76.2158 5.63281 76.4294 5.38802 76.7158 5.20313C77.0023 5.01563 77.3721 4.92188 77.8252 4.92188C78.2314 4.92188 78.5869 5.00521 78.8916 5.17187C79.1963 5.33594 79.4333 5.58594 79.6025 5.92187C79.7718 6.25521 79.8564 6.67708 79.8564 7.1875V11H78.9346V7.25C78.9346 6.77865 78.8122 6.41146 78.5674 6.14844C78.3226 5.88281 77.9867 5.75 77.5596 5.75C77.2653 5.75 77.0023 5.8138 76.7705 5.94141C76.5413 6.06901 76.3604 6.25521 76.2275 6.5C76.0947 6.74479 76.0283 7.04167 76.0283 7.39062ZM81.541 11V5H82.4629V11H81.541ZM82.0098 4C81.8301 4 81.6751 3.9388 81.5449 3.81641C81.4173 3.69401 81.3535 3.54688 81.3535 3.375C81.3535 3.20313 81.4173 3.05599 81.5449 2.93359C81.6751 2.8112 81.8301 2.75 82.0098 2.75C82.1895 2.75 82.3431 2.8112 82.4707 2.93359C82.6009 3.05599 82.666 3.20313 82.666 3.375C82.666 3.54688 82.6009 3.69401 82.4707 3.81641C82.3431 3.9388 82.1895 4 82.0098 4ZM89.0576 5L86.8389 11H85.9014L83.6826 5H84.6826L86.3389 9.78125H86.4014L88.0576 5H89.0576ZM92.5752 11.125C91.9971 11.125 91.4984 10.9974 91.0791 10.7422C90.6624 10.4844 90.3408 10.125 90.1143 9.66406C89.8903 9.20052 89.7783 8.66146 89.7783 8.04688C89.7783 7.43229 89.8903 6.89062 90.1143 6.42187C90.3408 5.95052 90.6559 5.58333 91.0596 5.32031C91.4658 5.05469 91.9398 4.92188 92.4814 4.92188C92.7939 4.92188 93.1025 4.97396 93.4072 5.07812C93.7119 5.18229 93.9893 5.35156 94.2393 5.58594C94.4893 5.81771 94.6885 6.125 94.8369 6.50781C94.9854 6.89062 95.0596 7.36198 95.0596 7.92187V8.3125H90.4346V7.51562H94.1221C94.1221 7.17708 94.0544 6.875 93.9189 6.60937C93.7861 6.34375 93.596 6.13411 93.3486 5.98047C93.1038 5.82682 92.8148 5.75 92.4814 5.75C92.1143 5.75 91.7965 5.84115 91.5283 6.02344C91.2627 6.20312 91.0583 6.4375 90.915 6.72656C90.7718 7.01562 90.7002 7.32552 90.7002 7.65625V8.1875C90.7002 8.64063 90.7783 9.02474 90.9346 9.33984C91.0934 9.65234 91.3135 9.89062 91.5947 10.0547C91.876 10.2161 92.2028 10.2969 92.5752 10.2969C92.8174 10.2969 93.0361 10.263 93.2314 10.1953C93.4294 10.125 93.5999 10.0208 93.7432 9.88281C93.8864 9.74219 93.9971 9.56771 94.0752 9.35937L94.9658 9.60938C94.8721 9.91146 94.7145 10.1771 94.4932 10.4062C94.2718 10.6328 93.9984 10.8099 93.6729 10.9375C93.3473 11.0625 92.9814 11.125 92.5752 11.125ZM96.4619 11V5H97.3525V5.90625H97.415C97.5244 5.60938 97.7223 5.36849 98.0088 5.18359C98.2952 4.9987 98.6182 4.90625 98.9775 4.90625C99.0452 4.90625 99.1299 4.90755 99.2314 4.91016C99.333 4.91276 99.4098 4.91667 99.4619 4.92188V5.85937C99.4307 5.85156 99.359 5.83984 99.2471 5.82422C99.1377 5.80599 99.0218 5.79687 98.8994 5.79687C98.6077 5.79687 98.3473 5.85807 98.1182 5.98047C97.8916 6.10026 97.7119 6.26693 97.5791 6.48047C97.4489 6.69141 97.3838 6.93229 97.3838 7.20312V11H96.4619ZM104.805 6.34375L103.977 6.57812C103.924 6.4401 103.848 6.30599 103.746 6.17578C103.647 6.04297 103.512 5.93359 103.34 5.84766C103.168 5.76172 102.948 5.71875 102.68 5.71875C102.313 5.71875 102.007 5.80339 101.762 5.97266C101.52 6.13932 101.398 6.35156 101.398 6.60937C101.398 6.83854 101.482 7.01953 101.648 7.15234C101.815 7.28516 102.076 7.39583 102.43 7.48437L103.32 7.70313C103.857 7.83333 104.257 8.03255 104.52 8.30078C104.783 8.56641 104.914 8.90885 104.914 9.32812C104.914 9.67187 104.815 9.97917 104.617 10.25C104.422 10.5208 104.148 10.7344 103.797 10.8906C103.445 11.0469 103.036 11.125 102.57 11.125C101.958 11.125 101.452 10.9922 101.051 10.7266C100.65 10.4609 100.396 10.0729 100.289 9.5625L101.164 9.34375C101.247 9.66667 101.405 9.90885 101.637 10.0703C101.871 10.2318 102.177 10.3125 102.555 10.3125C102.984 10.3125 103.326 10.2214 103.578 10.0391C103.833 9.85417 103.961 9.63281 103.961 9.375C103.961 9.16667 103.888 8.99219 103.742 8.85156C103.596 8.70833 103.372 8.60156 103.07 8.53125L102.07 8.29687C101.521 8.16667 101.117 7.96484 100.859 7.69141C100.604 7.41536 100.477 7.07031 100.477 6.65625C100.477 6.31771 100.572 6.01823 100.762 5.75781C100.954 5.4974 101.216 5.29297 101.547 5.14453C101.88 4.99609 102.258 4.92188 102.68 4.92188C103.273 4.92188 103.74 5.05208 104.078 5.3125C104.419 5.57292 104.661 5.91667 104.805 6.34375ZM106.302 11V5H107.224V11H106.302ZM106.771 4C106.591 4 106.436 3.9388 106.306 3.81641C106.178 3.69401 106.114 3.54688 106.114 3.375C106.114 3.20313 106.178 3.05599 106.306 2.93359C106.436 2.8112 106.591 2.75 106.771 2.75C106.95 2.75 107.104 2.8112 107.231 2.93359C107.362 3.05599 107.427 3.20313 107.427 3.375C107.427 3.54688 107.362 3.69401 107.231 3.81641C107.104 3.9388 106.95 4 106.771 4ZM111.521 5V5.78125H108.412V5H111.521ZM109.318 3.5625H110.24V9.28125C110.24 9.54167 110.278 9.73698 110.354 9.86719C110.432 9.99479 110.531 10.0807 110.65 10.125C110.773 10.1667 110.902 10.1875 111.037 10.1875C111.139 10.1875 111.222 10.1823 111.287 10.1719C111.352 10.1589 111.404 10.1484 111.443 10.1406L111.631 10.9687C111.568 10.9922 111.481 11.0156 111.369 11.0391C111.257 11.0651 111.115 11.0781 110.943 11.0781C110.683 11.0781 110.428 11.0221 110.178 10.9102C109.93 10.7982 109.725 10.6276 109.561 10.3984C109.399 10.1693 109.318 9.88021 109.318 9.53125V3.5625ZM113.502 13.25C113.346 13.25 113.206 13.237 113.084 13.2109C112.962 13.1875 112.877 13.1641 112.83 13.1406L113.064 12.3281C113.288 12.3854 113.486 12.4063 113.658 12.3906C113.83 12.375 113.982 12.2982 114.115 12.1602C114.251 12.0247 114.374 11.8047 114.486 11.5L114.658 11.0313L112.439 5H113.439L115.096 9.78125H115.158L116.814 5H117.814L115.268 11.875C115.153 12.1849 115.011 12.4414 114.842 12.6445C114.673 12.8503 114.476 13.0026 114.252 13.1016C114.031 13.2005 113.781 13.25 113.502 13.25ZM122.25 11V3H123.219V10.1406H126.938V11H122.25ZM128.313 11V5H129.234V11H128.313ZM128.781 4C128.602 4 128.447 3.9388 128.316 3.81641C128.189 3.69401 128.125 3.54688 128.125 3.375C128.125 3.20313 128.189 3.05599 128.316 2.93359C128.447 2.8112 128.602 2.75 128.781 2.75C128.961 2.75 129.115 2.8112 129.242 2.93359C129.372 3.05599 129.438 3.20313 129.438 3.375C129.438 3.54688 129.372 3.69401 129.242 3.81641C129.115 3.9388 128.961 4 128.781 4ZM131.048 11V3H131.97V5.95312H132.048C132.116 5.84896 132.209 5.71615 132.329 5.55469C132.451 5.39062 132.626 5.24479 132.853 5.11719C133.082 4.98698 133.392 4.92188 133.782 4.92188C134.287 4.92188 134.733 5.04818 135.118 5.30078C135.504 5.55339 135.804 5.91146 136.021 6.375C136.237 6.83854 136.345 7.38542 136.345 8.01563C136.345 8.65104 136.237 9.20182 136.021 9.66797C135.804 10.1315 135.505 10.4909 135.122 10.7461C134.739 10.9987 134.298 11.125 133.798 11.125C133.412 11.125 133.104 11.0612 132.872 10.9336C132.64 10.8034 132.462 10.6562 132.337 10.4922C132.212 10.3255 132.116 10.1875 132.048 10.0781H131.938V11H131.048ZM131.954 8C131.954 8.45312 132.021 8.85286 132.153 9.19922C132.286 9.54297 132.48 9.8125 132.735 10.0078C132.991 10.2005 133.303 10.2969 133.673 10.2969C134.058 10.2969 134.38 10.1953 134.638 9.99219C134.898 9.78646 135.093 9.51042 135.224 9.16406C135.356 8.8151 135.423 8.42708 135.423 8C135.423 7.57812 135.358 7.19792 135.228 6.85937C135.1 6.51823 134.906 6.2487 134.646 6.05078C134.388 5.85026 134.063 5.75 133.673 5.75C133.298 5.75 132.983 5.84505 132.728 6.03516C132.472 6.22266 132.28 6.48568 132.149 6.82422C132.019 7.16016 131.954 7.55208 131.954 8ZM137.755 11V5H138.646V5.90625H138.708C138.817 5.60938 139.015 5.36849 139.302 5.18359C139.588 4.9987 139.911 4.90625 140.271 4.90625C140.338 4.90625 140.423 4.90755 140.524 4.91016C140.626 4.91276 140.703 4.91667 140.755 4.92188V5.85937C140.724 5.85156 140.652 5.83984 140.54 5.82422C140.431 5.80599 140.315 5.79687 140.192 5.79687C139.901 5.79687 139.64 5.85807 139.411 5.98047C139.185 6.10026 139.005 6.26693 138.872 6.48047C138.742 6.69141 138.677 6.93229 138.677 7.20312V11H137.755ZM143.613 11.1406C143.233 11.1406 142.888 11.069 142.578 10.9258C142.268 10.7799 142.022 10.5703 141.84 10.2969C141.658 10.0208 141.566 9.6875 141.566 9.29687C141.566 8.95312 141.634 8.67448 141.77 8.46094C141.905 8.24479 142.086 8.07552 142.313 7.95312C142.539 7.83073 142.789 7.73958 143.063 7.67969C143.339 7.61719 143.616 7.56771 143.895 7.53125C144.259 7.48437 144.555 7.44922 144.781 7.42578C145.01 7.39974 145.177 7.35677 145.281 7.29687C145.388 7.23698 145.441 7.13281 145.441 6.98437V6.95312C145.441 6.56771 145.336 6.26823 145.125 6.05469C144.917 5.84115 144.6 5.73437 144.176 5.73437C143.736 5.73437 143.391 5.83073 143.141 6.02344C142.891 6.21615 142.715 6.42187 142.613 6.64062L141.738 6.32812C141.895 5.96354 142.103 5.67969 142.363 5.47656C142.626 5.27083 142.913 5.1276 143.223 5.04687C143.535 4.96354 143.842 4.92188 144.145 4.92188C144.337 4.92188 144.559 4.94531 144.809 4.99219C145.061 5.03646 145.305 5.12891 145.539 5.26953C145.776 5.41016 145.973 5.6224 146.129 5.90625C146.285 6.1901 146.363 6.57031 146.363 7.04688V11H145.441V10.1875H145.395C145.332 10.3177 145.228 10.457 145.082 10.6055C144.936 10.7539 144.742 10.8802 144.5 10.9844C144.258 11.0885 143.962 11.1406 143.613 11.1406ZM143.754 10.3125C144.118 10.3125 144.426 10.2409 144.676 10.0977C144.928 9.95443 145.118 9.76953 145.246 9.54297C145.376 9.31641 145.441 9.07812 145.441 8.82812V7.98437C145.402 8.03125 145.316 8.07422 145.184 8.11328C145.053 8.14974 144.902 8.18229 144.73 8.21094C144.561 8.23698 144.396 8.26042 144.234 8.28125C144.076 8.29948 143.947 8.3151 143.848 8.32812C143.608 8.35937 143.384 8.41016 143.176 8.48047C142.97 8.54818 142.803 8.65104 142.676 8.78906C142.551 8.92448 142.488 9.10937 142.488 9.34375C142.488 9.66406 142.607 9.90625 142.844 10.0703C143.083 10.2318 143.387 10.3125 143.754 10.3125ZM148.046 11V5H148.937V5.90625H148.999C149.108 5.60938 149.306 5.36849 149.593 5.18359C149.879 4.9987 150.202 4.90625 150.562 4.90625C150.629 4.90625 150.714 4.90755 150.815 4.91016C150.917 4.91276 150.994 4.91667 151.046 4.92188V5.85937C151.015 5.85156 150.943 5.83984 150.831 5.82422C150.722 5.80599 150.606 5.79687 150.483 5.79687C150.192 5.79687 149.931 5.85807 149.702 5.98047C149.476 6.10026 149.296 6.26693 149.163 6.48047C149.033 6.69141 148.968 6.93229 148.968 7.20312V11H148.046ZM152.915 13.25C152.759 13.25 152.619 13.237 152.497 13.2109C152.375 13.1875 152.29 13.1641 152.243 13.1406L152.478 12.3281C152.701 12.3854 152.899 12.4063 153.071 12.3906C153.243 12.375 153.396 12.2982 153.528 12.1602C153.664 12.0247 153.787 11.8047 153.899 11.5L154.071 11.0313L151.853 5H152.853L154.509 9.78125H154.571L156.228 5H157.228L154.681 11.875C154.566 12.1849 154.424 12.4414 154.255 12.6445C154.086 12.8503 153.889 13.0026 153.665 13.1016C153.444 13.2005 153.194 13.25 152.915 13.25Z" fill="white"/>
</g>
<defs>
<filter id="filter0_d_900_96" x="0.53125" y="0.75" width="164.696" height="20.5" filterUnits="userSpaceOnUse" color-interpolation-filters="sRGB">
<feFlood flood-opacity="0" result="BackgroundImageFix"/>
<feColorMatrix in="SourceAlpha" type="matrix" values="0 0 0 0 0 0 0 0 0 0 0 0 0 0 0 0 0 0 127 0" result="hardAlpha"/>
<feOffset dx="3" dy="3"/>
<feGaussianBlur stdDeviation="2.5"/>
<feComposite in2="hardAlpha" operator="out"/>
<feColorMatrix type="matrix" values="0 0 0 0 0 0 0 0 0 0 0 0 0 0 0 0 0 0 0.5 0"/>
<feBlend mode="normal" in2="BackgroundImageFix" result="effect1_dropShadow_900_96"/>
<feBlend mode="normal" in="SourceGraphic" in2="effect1_dropShadow_900_96" result="shape"/>
</filter>
</defs>
</svg>
